<?xml version="1.0" encoding="utf-8"?>
<!-- Generator: Adobe Illustrator 15.1.0, SVG Export Plug-In . SVG Version: 6.00 Build 0)  -->
<!DOCTYPE svg PUBLIC "-//W3C//DTD SVG 1.1//EN" "http://www.w3.org/Graphics/SVG/1.1/DTD/svg11.dtd">
<svg version="1.1" id="Курсы" xmlns="http://www.w3.org/2000/svg" xmlns:xlink="http://www.w3.org/1999/xlink" x="0px" y="0px"
	 width="1920px" height="1235px" viewBox="0 0 1920 1235" enable-background="new 0 0 1920 1235" xml:space="preserve">
<g opacity="0.5" enable-background="new    ">
	<g>
		<g>
			<g>
				<path opacity="0.9" fill="#0069FF" enable-background="new    " d="M1521.671,705.366c0,28.446,23.062,51.499,51.495,51.499
					c28.443,0,51.502-23.053,51.502-51.499c0-28.442-23.059-51.499-51.502-51.499
					C1544.729,653.867,1521.671,676.924,1521.671,705.366z"/>
				<path fill="#CEEBEF" d="M1630.092,264.634c0,52.489,42.558,95.035,95.038,95.035c52.485,0,95.034-42.545,95.034-95.035
					c0-52.49-42.549-95.031-95.034-95.031C1672.647,169.603,1630.092,212.145,1630.092,264.634z"/>
				<g>
					<path fill="#FFFFFF" d="M1765.387,242.113c0.609-3.102,0.345-8.946-4.52-11.167c-4.723-2.155-12.269,0.001-22.982,6.56
						c-2.063-12.393-5.376-19.507-10.096-21.663c-4.865-2.221-9.454,1.406-11.379,3.873c-1.866,2.327-2.521,4.96-1.888,7.618
						c1.657,6.981,12.071,12.666,18.133,15.433c1.14,0.521,1.979,0.87,2.357,1.024c0.366,0.186,1.182,0.591,2.32,1.112
						c6.063,2.767,17.177,6.913,23.538,3.594C1763.294,247.233,1764.857,245.015,1765.387,242.113z M1719.149,226.234
						c-0.293-1.229,0.016-2.354,0.981-3.561c0.029-0.038,3.002-3.729,5.683-2.506c1.463,0.668,4.905,3.718,7.292,17.556
						C1725.236,233.914,1719.943,229.578,1719.149,226.234z M1758.674,244.281c-3.047,1.59-9.791,0.43-17.824-3.021
						c12.021-7.261,16.58-6.656,18.042-5.988c2.682,1.224,1.838,5.887,1.823,5.956
						C1760.441,242.727,1759.793,243.698,1758.674,244.281z"/>
					<path fill="#FFFFFF" d="M1766.838,263.169l-67.307-30.732c-1.194-0.545-2.605-0.019-3.15,1.175l-6.543,14.33
						c-0.545,1.194-0.019,2.605,1.176,3.15l2.337,1.067l-15.082,33.034c-0.546,1.194-0.02,2.604,1.177,3.15l58.306,26.622
						c1.194,0.545,2.605,0.021,3.15-1.175l15.083-33.034l2.338,1.067c1.192,0.545,2.604,0.019,3.147-1.175l6.543-14.33
						C1768.559,265.125,1768.032,263.714,1766.838,263.169z M1713.38,298.612l-5.618-2.565l20.641-45.201l5.616,2.565
						L1713.38,298.612z M1699.719,237.75l24.356,11.121l-4.568,10.005l-24.354-11.121L1699.719,237.75z M1697.676,254.134
						l19.856,9.066l-14.096,30.871l-19.855-9.066L1697.676,254.134z M1737.562,309.653l-19.854-9.066l14.096-30.871l19.856,9.066
						L1737.562,309.653z M1758.132,276.511l-24.354-11.121l4.566-10.004l24.356,11.121L1758.132,276.511z"/>
				</g>
				<path fill="#EC297B" d="M288.168,355.976c42.781-13.273,66.701-58.716,53.425-101.495
					c-13.272-42.778-58.716-66.701-101.498-53.426c-42.782,13.272-66.698,58.719-53.425,101.498
					C199.946,345.332,245.39,369.25,288.168,355.976z"/>
				<g>
					<g>
						<path fill="#FFFFFF" d="M276.654,319.775c-3.353,1.036-6.885-0.414-8.62-3.294l-4.432,1.37c2.544,5.279,8.637,8.064,14.4,6.28
							c5.764-1.785,9.218-7.523,8.335-13.316l-4.432,1.372C282.103,315.543,280.008,318.737,276.654,319.775z"/>
					</g>
					<path fill="#FFFFFF" d="M298.81,286.809c-0.252-0.813-0.937-1.419-1.775-1.57c-0.127-0.023-12.885-2.496-17.91-18.724
						c-1.298-4.886-6.522-14.169-16.995-14.334c-0.134-0.002-0.297-0.002-0.487,0.002c0.657-1.766,0.765-3.752,0.165-5.69
						c-1.445-4.669-6.4-7.28-11.066-5.835c-4.667,1.444-7.279,6.398-5.834,11.067c0.6,1.938,1.812,3.515,3.352,4.602
						c-0.158,0.104-0.292,0.195-0.401,0.273c-8.548,6.053-7.613,16.664-5.954,21.341c5.012,16.19-3.799,25.286-4.17,25.656
						c-0.606,0.6-0.829,1.485-0.577,2.298c1.934,6.247,3.395,11.083,3.396,11.089c0.176,0.582,0.576,1.068,1.113,1.354
						s1.165,0.344,1.745,0.165l57.361-17.757c0.581-0.18,1.065-0.583,1.347-1.122c0.282-0.538,0.336-1.166,0.153-1.746
						C302.271,297.872,300.744,293.056,298.81,286.809z M252.091,245.015c2.256-0.699,4.661,0.569,5.36,2.827
						c0.698,2.256-0.569,4.66-2.826,5.358c-2.257,0.699-4.661-0.569-5.359-2.824C248.566,248.118,249.834,245.713,252.091,245.015z
						 M244.253,313.464c-0.542-1.781-1.377-4.513-2.36-7.697c2.609-3.208,9.254-13.396,4.342-29.257
						c-0.149-0.432-3.587-10.633,4.258-16.188c0.52-0.369,2.416-1.604,5.524-2.648c3.142-0.891,5.404-0.943,6.041-0.932
						c9.612,0.15,12.539,10.509,12.683,11.032c4.889,15.793,16.125,20.434,20.09,21.605c0.987,3.183,1.843,5.909,2.401,7.684
						L244.253,313.464z"/>
				</g>
				<path fill="#F6921E" d="M1625.307,419.614c18.24-5.663,28.446-25.044,22.779-43.292c-5.659-18.244-25.044-28.449-43.285-22.783
					c-18.248,5.663-28.448,25.044-22.79,43.285C1587.674,415.075,1607.055,425.276,1625.307,419.614z"/>
				<path opacity="0.9" fill="#0069FF" enable-background="new    " d="M1590.204,527.185c7.669-2.376,11.962-10.53,9.582-18.202
					c-2.379-7.674-10.535-11.967-18.207-9.582c-7.672,2.376-11.962,10.534-9.582,18.202
					C1574.377,525.275,1582.529,529.568,1590.204,527.185z"/>
				
					<linearGradient id="SVGID_1_" gradientUnits="userSpaceOnUse" x1="3045.5762" y1="-260.7095" x2="3146.9863" y2="-260.7095" gradientTransform="matrix(-1 0 0 1 4774.3984 640.6797)">
					<stop  offset="0.011" style="stop-color:#F58A1F"/>
					<stop  offset="1" style="stop-color:#ED3424"/>
				</linearGradient>
				<path fill="url(#SVGID_1_)" d="M1693.138,428.386c26.738-8.294,41.689-36.703,33.395-63.443
					c-8.298-26.735-36.7-41.688-63.438-33.388c-26.737,8.297-41.687,36.7-33.393,63.437
					C1637.997,421.732,1666.397,436.688,1693.138,428.386z"/>
				
					<linearGradient id="SVGID_2_" gradientUnits="userSpaceOnUse" x1="4541.0205" y1="-430.0684" x2="4635.998" y2="-430.0684" gradientTransform="matrix(-1 0 0 1 4774.3984 640.6797)">
					<stop  offset="0" style="stop-color:#AEDEE4"/>
					<stop  offset="0.4011" style="stop-color:#57B6DD"/>
					<stop  offset="1" style="stop-color:#00B0D8"/>
				</linearGradient>
				<path fill="url(#SVGID_2_)" d="M138.401,210.61c0,26.227,21.26,47.49,47.485,47.49c26.23,0,47.492-21.263,47.492-47.49
					c0-26.226-21.262-47.487-47.492-47.487C159.661,163.124,138.401,184.385,138.401,210.61z"/>
				<path opacity="0.67" fill="#0073FF" enable-background="new    " d="M223.676,680.372c0,23.881,19.369,43.238,43.25,43.238
					c23.86,0,43.229-19.357,43.229-43.238c0-23.871-19.369-43.238-43.229-43.238C243.045,637.134,223.676,656.501,223.676,680.372z"
					/>
				<path opacity="0.67" fill="#0073FF" enable-background="new    " d="M217.001,189.121c0,4.292,3.477,7.769,7.769,7.769
					c4.289,0,7.766-3.477,7.766-7.769c0-4.286-3.478-7.763-7.766-7.763C220.478,181.358,217.001,184.835,217.001,189.121z"/>
				<path fill="#EC2D77" d="M189.437,481.614c0,24.292,19.69,43.98,43.979,43.98s43.982-19.688,43.982-43.98
					c0-24.286-19.694-43.979-43.982-43.979C209.127,437.635,189.437,457.329,189.437,481.614z"/>
				<path fill="#E6E430" d="M1733.63,503.14c-47.15,0-85.385,38.237-85.385,85.396c0,44.242,33.661,80.633,76.771,84.95v446.979
					c5.734-0.627,11.459-0.903,17.236-0.994V673.485c43.112-4.317,76.771-40.708,76.771-84.95
					C1819.021,541.376,1780.796,503.14,1733.63,503.14z"/>
				<path opacity="0.59" fill="#8BC53F" enable-background="new    " d="M1787.637,670.758
					c-20.401-65.771-90.265-102.54-156.03-82.121c-65.761,20.403-102.532,90.267-82.121,156.023
					c15.155,48.894,57.662,81.723,105.49,86.991v273.212c8.981,3.904,17.805,8.269,27.168,11.103V831.644
					c7.782-0.867,15.599-2.448,23.362-4.854C1771.272,806.386,1808.047,736.525,1787.637,670.758z"/>
				
					<linearGradient id="SVGID_3_" gradientUnits="userSpaceOnUse" x1="4469.2744" y1="484.8633" x2="4469.2861" y2="484.8633" gradientTransform="matrix(-1 0 0 1 4774.3984 640.6797)">
					<stop  offset="0" style="stop-color:#59B6DD"/>
					<stop  offset="1" style="stop-color:#08AFD8"/>
				</linearGradient>
				<path opacity="0.48" fill="url(#SVGID_3_)" enable-background="new    " d="M305.126,1129.646v-8.207
					C305.108,1124.174,305.111,1126.909,305.126,1129.646z"/>
				
					<linearGradient id="SVGID_4_" gradientUnits="userSpaceOnUse" x1="4373.5137" y1="209.375" x2="4577.6836" y2="209.375" gradientTransform="matrix(-1 0 0 1 4774.3984 640.6797)">
					<stop  offset="0" style="stop-color:#59B6DD"/>
					<stop  offset="1" style="stop-color:#08AFD8"/>
				</linearGradient>
				<path opacity="0.48" fill="url(#SVGID_4_)" enable-background="new    " d="M298.799,676.037
					c-56.372,0-102.084,45.705-102.084,102.084c0,54.249,42.332,98.598,95.757,101.868v144.083c0.285-0.723,0.581-1.446,0.898-2.181
					c3.621-8.354,8.813-16.125,11.734-24.759c0.006-0.02,0.015-0.035,0.021-0.055v-117.09c53.436-3.27,95.76-47.619,95.76-101.868
					C400.886,721.742,355.182,676.037,298.799,676.037z"/>
				
					<linearGradient id="SVGID_5_" gradientUnits="userSpaceOnUse" x1="4608.1807" y1="210.0669" x2="4656.6714" y2="958.9822" gradientTransform="matrix(-1 0 0 1 4774.3984 640.6797)">
					<stop  offset="0" style="stop-color:#EC1B89"/>
					<stop  offset="1" style="stop-color:#EE4323"/>
				</linearGradient>
				<path fill="url(#SVGID_5_)" d="M159.548,802.976c-83.312,0-150.837,67.535-150.837,150.85
					c0,78.121,59.411,142.371,135.51,150.062v0.163c0.786,0.007,1.58,0.091,2.37,0.281c0.797,0.19,1.6,0.356,2.402,0.521
					c0.592-0.113,1.19-0.208,1.792-0.269c0.408-0.049,0.815-0.088,1.215-0.104c0.854-0.022,1.681,0.091,2.475,0.298
					c5.67-0.566,11.353-0.881,17.055-0.59c0.638-0.136,1.297-0.208,1.97-0.208h0.5c0.281,0.002,0.569,0.014,0.858,0.027v-0.124
					c76.108-7.689,135.52-71.939,135.52-150.063C310.378,870.511,242.834,802.976,159.548,802.976z"/>
				
					<linearGradient id="SVGID_6_" gradientUnits="userSpaceOnUse" x1="4517.4219" y1="132.8477" x2="4701.8604" y2="132.8477" gradientTransform="matrix(-1 0 0 1 4774.3984 640.6797)">
					<stop  offset="0" style="stop-color:#FCB315"/>
					<stop  offset="0.1521" style="stop-color:#FBAE16"/>
					<stop  offset="0.343" style="stop-color:#F99E18"/>
					<stop  offset="0.5545" style="stop-color:#F6851B"/>
					<stop  offset="0.7793" style="stop-color:#F2611F"/>
					<stop  offset="1" style="stop-color:#ED3724"/>
				</linearGradient>
				<path fill="url(#SVGID_6_)" d="M164.752,442.689c-50.93,0-92.214,41.286-92.214,92.218c0,49.009,38.24,89.066,86.501,92.02
					v477.107c2.636-0.177,5.321-0.011,7.976,0.331c1.067-0.49,2.232-0.787,3.452-0.856V626.927
					c48.268-2.951,86.509-43.014,86.509-92.02C256.977,483.977,215.683,442.689,164.752,442.689z"/>
				
					<linearGradient id="SVGID_7_" gradientUnits="userSpaceOnUse" x1="2275.4521" y1="-32.4136" x2="2485.3445" y2="-49.677" gradientTransform="matrix(-0.8774 0.4798 0.4798 0.8774 3815.3489 -97.7173)">
					<stop  offset="0" style="stop-color:#AEDEE4"/>
					<stop  offset="0.4011" style="stop-color:#57B6DD"/>
					<stop  offset="1" style="stop-color:#00B0D8"/>
				</linearGradient>
				<path fill="url(#SVGID_7_)" d="M1614.748,1059.879c30.882,56.475,101.684,77.216,158.151,46.338
					c56.46-30.875,77.21-101.68,46.326-158.152c-30.87-56.454-101.677-77.188-158.138-46.313
					C1604.623,932.63,1583.877,1003.425,1614.748,1059.879z"/>
				<path opacity="0.9" fill="#0069FF" enable-background="new    " d="M1868.892,1013.927
					c17.772-18.331,17.309-47.597-1.041-65.352c-18.338-17.771-47.597-17.31-65.36,1.037c-17.753,18.319-17.287,47.586,1.048,65.349
					C1821.871,1032.74,1851.136,1032.258,1868.892,1013.927z"/>
				<path opacity="0.9" fill="#0069FF" enable-background="new    " d="M191.462,166.132c9.919-3.081,15.47-13.612,12.385-23.535
					c-3.078-9.923-13.609-15.47-23.529-12.389c-9.923,3.074-15.466,13.615-12.389,23.535
					C171.007,163.66,181.545,169.207,191.462,166.132z"/>
				<path fill="#FFFFFF" d="M11.561,1153.451c0.046-65.713,21.045-232.885,220.461-350.725
					C370.575,720.92,447.9,696.271,559.35,512.919h-4.151c-110.521,181.125-186.521,204.923-324.97,286.78
					C29.51,918.254,8.006,1087.076,8.053,1153.451c0,17.914,1.563,28.396,1.568,28.469l3.492-0.512h-0.018
					C13.095,1181.38,11.561,1171.156,11.561,1153.451z M291.851,799.601c167.225-80.156,247.18-105.938,368.842-286.682h-4.275
					C535.825,691.39,457.223,716.3,290.329,796.43C42.667,915.198,21.018,1100.663,21.076,1161.146
					c0,12.604,0.941,19.803,0.947,19.871l3.491-0.446v-0.013c0-0.018-0.923-6.977-0.923-19.412
					C24.66,1101.4,45.577,917.807,291.851,799.601z M977.833,512.919c-164.35,168.06-241.117,198.193-507.338,273.799
					C77.437,898.145,58.919,1130.345,59.046,1171.871c0,4.146,0.192,6.4,0.192,6.441l3.497-0.285c0-0.006-0.174-2.119-0.174-6.156
					c0.134-40.563,17.223-270.491,408.894-381.772c267.399-75.821,345.143-106.653,511.287-277.18H977.833z M37.38,1166.271
					c0.093-53.423,20.231-252.832,314.323-369.829C549.592,717.866,630.86,690.768,764.441,512.92h-4.444
					C627.666,688.366,547.692,714.702,350.402,793.177C54.899,910.575,33.779,1112.03,33.86,1166.271
					c0,8.836,0.552,13.782,0.564,13.843l3.502-0.391h-0.011C37.915,1179.706,37.38,1174.967,37.38,1166.271z M411.579,793.281
					c231.021-77.13,311.802-105.883,459.793-280.362h-4.646c-146.5,172.031-226.101,200.063-456.268,277.034
					C66.441,904.807,46.39,1121.794,46.495,1169.669c0,6.134,0.319,9.486,0.331,9.544l3.509-0.337c0-0.012-0.308-3.2-0.308-9.207
					C50.13,1122.683,68.962,907.862,411.579,793.281z"/>
				<path fill="#FFFFFF" d="M1604.203,1214.324c0.05-70.428,22.555-249.592,236.274-375.885
					c148.491-87.676,231.362-114.093,350.81-310.598h-4.451c-118.448,194.118-199.898,219.623-348.28,307.354
					c-215.114,127.059-238.16,307.989-238.11,379.128c0,19.199,1.675,30.436,1.68,30.51l3.742-0.547h-0.021
					C1605.847,1244.256,1604.203,1233.299,1604.203,1214.324z M1904.6,835.09c179.223-85.908,264.912-113.536,395.302-307.247
					h-4.582c-129.243,191.273-213.483,217.97-392.351,303.85c-265.43,127.289-288.631,326.058-288.567,390.881
					c0,13.51,1.009,21.223,1.016,21.297l3.74-0.479v-0.012c0-0.019-0.989-7.478-0.989-20.806
					C1618.241,1158.539,1640.659,961.775,1904.6,835.09z M2639.791,527.843c-176.14,180.114-258.414,212.411-543.731,293.439
					c-421.255,119.421-441.102,368.275-440.965,412.782c0,4.443,0.205,6.858,0.205,6.902l3.748-0.306
					c0-0.006-0.187-2.271-0.187-6.601c0.144-43.471,18.458-289.894,438.225-409.156c286.582-81.265,369.902-114.309,547.966-297.063
					L2639.791,527.843L2639.791,527.843z M1631.874,1228.063c0.101-57.254,21.684-270.97,336.871-396.357
					c212.084-84.214,299.183-113.254,442.346-303.861h-4.763c-141.824,188.033-227.535,216.258-438.978,300.362
					c-316.7,125.82-339.336,341.727-339.25,399.856c0,9.471,0.593,14.772,0.604,14.837l3.754-0.418h-0.013
					C1632.447,1242.463,1631.874,1237.383,1631.874,1228.063z M2032.916,828.317c247.593-82.663,334.168-113.479,492.776-300.476
					h-4.979c-157.009,184.372-242.32,214.416-488.999,296.907c-368.694,123.093-390.184,355.646-390.071,406.955
					c0,6.574,0.343,10.166,0.354,10.229l3.76-0.359c0-0.013-0.33-3.432-0.33-9.867
					C1645.539,1181.349,1665.722,951.118,2032.916,828.317z"/>
			</g>
		</g>
	</g>
</g>
</svg>
