<?xml version="1.0" encoding="utf-8"?>
<!-- Generator: Adobe Illustrator 15.1.0, SVG Export Plug-In . SVG Version: 6.00 Build 0)  -->
<!DOCTYPE svg PUBLIC "-//W3C//DTD SVG 1.1//EN" "http://www.w3.org/Graphics/SVG/1.1/DTD/svg11.dtd">
<svg version="1.1" id="Layer_1" xmlns="http://www.w3.org/2000/svg" xmlns:xlink="http://www.w3.org/1999/xlink" x="0px" y="0px"
	 width="16px" height="16px" viewBox="0 0 16 16" enable-background="new 0 0 16 16" xml:space="preserve">
<g>
	<path fill="#4C4C4C" d="M9.264,12.5H7.479l-0.882-2H2.741l-0.848,2H0.116l3.671-9h1.832L9.264,12.5z M6.166,9.5l-1.36-4.147
		C4.765,5.225,4.722,4.5,4.676,4.5H4.648c-0.041,0-0.086,0.702-0.137,0.852L3.164,9.5H6.166L6.166,9.5z"/>
</g>
<g>
	<path fill="#4C4C4C" d="M8.5,12.963V3.5h6v1h-4v3h1.46c1.003,0,1.783,0.102,2.341,0.575c0.559,0.475,0.838,1.077,0.838,1.948
		c0,0.93-0.297,1.397-0.893,1.936c-0.594,0.538-1.404,0.541-2.43,0.541H8.46L8.5,12.963z M10.5,8.5v3h1.057
		c0.598,0,1.06-0.059,1.381-0.342c0.323-0.282,0.485-0.645,0.485-1.15c0-1.025-0.612-1.508-1.839-1.508H10.5L10.5,8.5z"/>
</g>
</svg>
