<?xml version="1.0" encoding="utf-8"?>
<!-- Generator: Adobe Illustrator 15.1.0, SVG Export Plug-In . SVG Version: 6.00 Build 0)  -->
<!DOCTYPE svg PUBLIC "-//W3C//DTD SVG 1.1//EN" "http://www.w3.org/Graphics/SVG/1.1/DTD/svg11.dtd">
<svg version="1.1" id="Layer_1" xmlns="http://www.w3.org/2000/svg" xmlns:xlink="http://www.w3.org/1999/xlink" x="0px" y="0px"
	 width="16px" height="16px" viewBox="0 0 16 16" enable-background="new 0 0 16 16" xml:space="preserve">
<rect display="none" width="16" height="16"/>
<g>
	<path fill="#4C4C4C" d="M8.986,16H2.013C0.903,16,0,15.214,0,14.248V4.572C0,3.606,0.903,2.82,2.013,2.82h6.975
		C10.098,2.82,11,3.606,11,4.572v9.676C11,15.214,10.098,16,8.986,16z M2.013,4.244C1.71,4.244,1.5,4.417,1.5,4.572v9.676
		c0,0.154,0.21,0.328,0.513,0.328h6.975c0.302,0,0.513-0.174,0.513-0.328V4.572c0-0.155-0.211-0.329-0.513-0.329L2.013,4.244
		L2.013,4.244z"/>
</g>
<g>
	<path fill="#4C4C4C" d="M13.986,0H7.013C6.017,0,5.194,0.668,5.034,1.54C5.163,1.529,5.286,1.5,5.417,1.5H6.5
		c0.104,0,0.202,0.025,0.304,0.031C6.867,1.512,6.937,1.5,7.013,1.5h6.975c0.302,0,0.513,0.183,0.513,0.346v10.196
		c0,0.163-0.211,0.347-0.513,0.347h-1.864c0.062,0.497,0.058,1.004-0.013,1.5h1.877c1.109,0,2.013-0.828,2.013-1.847V1.846
		C16,0.828,15.098,0,13.986,0z"/>
</g>
<rect x="2.917" y="5.917" fill="#4C4C4C" width="5.167" height="1.667"/>
<rect x="12.117" y="3.583" fill="#4C4C4C" width="0.766" height="1.668"/>
</svg>
