<?xml version="1.0" encoding="utf-8"?>
<!-- Generator: Adobe Illustrator 15.1.0, SVG Export Plug-In . SVG Version: 6.00 Build 0)  -->
<!DOCTYPE svg PUBLIC "-//W3C//DTD SVG 1.1//EN" "http://www.w3.org/Graphics/SVG/1.1/DTD/svg11.dtd">
<svg version="1.1" id="Layer_1" xmlns="http://www.w3.org/2000/svg" xmlns:xlink="http://www.w3.org/1999/xlink" x="0px" y="0px"
	 width="16px" height="16px" viewBox="0 0 16 16" enable-background="new 0 0 16 16" xml:space="preserve">
<rect display="none" width="16" height="16"/>
<g display="none">
	<rect x="2.375" y="1.042" display="inline" fill="#FFFFFF" width="11.333" height="13.625"/>
	<path display="inline" fill="#C4C4C4" d="M12.246,16.055H3.753c-1.354,0-2.453-0.955-2.453-2.134V2.134C1.3,0.958,2.4,0,3.753,0
		h8.497c1.35,0,2.449,0.958,2.449,2.134v11.787C14.699,15.1,13.6,16.055,12.246,16.055z M3.753,1.735
		c-0.37,0-0.626,0.211-0.626,0.399v11.787c0,0.188,0.256,0.399,0.626,0.399h8.497c0.367,0,0.623-0.213,0.623-0.399V2.134
		c0-0.188-0.256-0.4-0.623-0.4L3.753,1.735L3.753,1.735z"/>
</g>
<path fill="#FFFFFF" stroke="#4C4C4C" stroke-width="2" stroke-miterlimit="10" d="M13.75,12.75c0,1.104-0.896,2-2,2H4
	c-1.104,0-2-0.896-2-2V2c0-1.104,0.896-2,2-2h7.75c1.104,0,2,0.896,2,2V12.75z"/>
<rect x="4.5" y="3.5" fill="#4C4C4C" width="7" height="2"/>
<g>
	<path fill="#F44747" d="M8.563,12.496v-0.871c0.367,0.248,0.739,0.371,1.117,0.371c0.381,0,0.688-0.096,0.918-0.291
		c0.231-0.193,0.348-0.451,0.348-0.775c0-0.315-0.116-0.563-0.354-0.742c-0.234-0.177-0.572-0.266-1.014-0.266
		c-0.151,0-0.457,0.016-0.918,0.047l0.199-2.945h2.759v0.773H9.614L9.52,9.199c0.182-0.01,0.345-0.016,0.488-0.016
		c0.594,0,1.053,0.15,1.377,0.457c0.324,0.305,0.486,0.721,0.486,1.25c0,0.555-0.186,1-0.557,1.334
		c-0.371,0.336-0.881,0.502-1.529,0.502C9.239,12.727,8.832,12.65,8.563,12.496z"/>
</g>
</svg>
