<?xml version="1.0" encoding="utf-8"?>
<!-- Generator: Adobe Illustrator 15.1.0, SVG Export Plug-In . SVG Version: 6.00 Build 0)  -->
<!DOCTYPE svg PUBLIC "-//W3C//DTD SVG 1.1//EN" "http://www.w3.org/Graphics/SVG/1.1/DTD/svg11.dtd">
<svg version="1.1" id="Layer_1" xmlns="http://www.w3.org/2000/svg" xmlns:xlink="http://www.w3.org/1999/xlink" x="0px" y="0px"
	 width="16px" height="16px" viewBox="0 0 16 16" enable-background="new 0 0 16 16" xml:space="preserve">
<g id="Layer_2">
	<path fill="#FFFFFF" d="M13.09,1.786c-0.011-0.012-0.021-0.024-0.031-0.037C12.555,1.241,12.184,0.656,11.932,0h-8.14v16h10.375
		V2.629C13.753,2.406,13.379,2.127,13.09,1.786z"/>
</g>
<g display="none">
	<path display="inline" fill="#FFFFFF" stroke="#4C4C4C" stroke-miterlimit="10" d="M13.064,2.758v12.301H2.935V0.942h8.389
		c-0.17-0.3-0.307-0.614-0.411-0.942H2v16h12V3.22C13.674,3.097,13.357,2.94,13.064,2.758z"/>
</g>
<path fill="#FFFFFF" stroke="#4C4C4C" stroke-miterlimit="10" d="M12.155,1.826C11.618,1.263,11.22,0.661,10.971,0H3v14.667h11.167
	V2.936C13.414,2.739,12.719,2.417,12.155,1.826z"/>
<g>
	<path fill="#4C4C4C" d="M11.993,2.746h-1.568v-1.55c-0.207-0.323-0.364-0.671-0.493-1.032C9.828,0.17,9.732,0.187,9.625,0.187
		c-0.043,0-0.083-0.005-0.125-0.006v3.506h3.381c-0.064-0.176-0.1-0.362-0.146-0.544C12.477,3.031,12.229,2.895,11.993,2.746z"/>
</g>
<line fill="none" stroke="#4C4C4C" stroke-miterlimit="10" x1="10.75" y1="0" x2="13.5" y2="3.333"/>
<line fill="none" stroke="#1D8FCE" stroke-miterlimit="10" x1="4.458" y1="5" x2="11.542" y2="5"/>
<line fill="none" stroke="#1D8FCE" stroke-miterlimit="10" x1="4.458" y1="7" x2="11.541" y2="7"/>
<line fill="none" stroke="#1D8FCE" stroke-miterlimit="10" x1="4.458" y1="9" x2="11.542" y2="9"/>
<line fill="none" stroke="#1D8FCE" stroke-miterlimit="10" x1="4.459" y1="11" x2="11.541" y2="11"/>
</svg>
