<?xml version="1.0" encoding="utf-8"?>
<!-- Generator: Adobe Illustrator 15.1.0, SVG Export Plug-In . SVG Version: 6.00 Build 0)  -->
<!DOCTYPE svg PUBLIC "-//W3C//DTD SVG 1.1//EN" "http://www.w3.org/Graphics/SVG/1.1/DTD/svg11.dtd">
<svg version="1.1" id="Layer_1" xmlns="http://www.w3.org/2000/svg" xmlns:xlink="http://www.w3.org/1999/xlink" x="0px" y="0px"
	 width="16px" height="16px" viewBox="0 0 16 16" enable-background="new 0 0 16 16" xml:space="preserve">
<g>
	<path fill="#4C4C4C" d="M6.563,10.77c-0.053-0.146-0.1-0.338-0.141-0.57C6.381,9.964,6.361,9.73,6.361,9.503
		c0-0.356,0.072-0.681,0.215-0.971c0.143-0.29,0.322-0.561,0.537-0.813C7.326,7.467,7.557,7.224,7.806,6.99
		c0.249-0.234,0.48-0.463,0.695-0.686c0.213-0.223,0.392-0.457,0.536-0.703C9.18,5.354,9.252,5.085,9.252,4.792
		c0-0.264-0.053-0.494-0.158-0.69C8.989,3.906,8.843,3.742,8.66,3.61C8.474,3.478,8.263,3.38,8.027,3.315
		C7.789,3.251,7.536,3.219,7.266,3.219c-0.873,0-1.705,0.39-2.496,1.169v-2.03c0.961-0.563,1.957-0.844,2.988-0.844
		c0.475,0,0.924,0.062,1.346,0.185c0.422,0.123,0.791,0.305,1.106,0.545c0.315,0.24,0.563,0.539,0.746,0.896
		s0.272,0.773,0.272,1.248c0,0.451-0.076,0.853-0.229,1.204c-0.151,0.351-0.347,0.675-0.576,0.971S9.945,7.121,9.68,7.35
		C9.412,7.578,9.162,7.807,8.932,8.035C8.7,8.264,8.508,8.501,8.356,8.747S8.127,9.266,8.127,9.564c0,0.252,0.032,0.479,0.097,0.686
		s0.129,0.378,0.193,0.52H6.563z M7.565,14.486c-0.334,0-0.63-0.114-0.888-0.344c-0.246-0.224-0.369-0.498-0.369-0.826
		c0-0.334,0.123-0.608,0.369-0.825c0.252-0.234,0.548-0.353,0.888-0.353c0.334,0,0.627,0.116,0.879,0.353
		c0.246,0.217,0.369,0.491,0.369,0.825c0,0.328-0.123,0.604-0.369,0.826C8.186,14.372,7.893,14.486,7.565,14.486z"/>
</g>
</svg>
