<?xml version="1.0" encoding="utf-8"?>
<!-- Generator: Adobe Illustrator 15.1.0, SVG Export Plug-In . SVG Version: 6.00 Build 0)  -->
<!DOCTYPE svg PUBLIC "-//W3C//DTD SVG 1.1//EN" "http://www.w3.org/Graphics/SVG/1.1/DTD/svg11.dtd">
<svg version="1.1" id="Layer_1" xmlns="http://www.w3.org/2000/svg" xmlns:xlink="http://www.w3.org/1999/xlink" x="0px" y="0px"
	 width="48px" height="48px" viewBox="0 0 48 48" enable-background="new 0 0 48 48" xml:space="preserve">
<rect fill="#FFFFFF" stroke="#4C4C4C" stroke-miterlimit="10" width="47" height="47"/>
<line fill="none" stroke="#1D8FCE" stroke-miterlimit="10" x1="0" y1="10" x2="47.5" y2="10"/>
<line fill="none" stroke="#1D8FCE" stroke-miterlimit="10" x1="0" y1="20" x2="47.5" y2="20"/>
<line fill="none" stroke="#1D8FCE" stroke-miterlimit="10" x1="0" y1="29" x2="47.5" y2="29"/>
<line fill="none" stroke="#1D8FCE" stroke-miterlimit="10" x1="0" y1="38" x2="47.5" y2="38"/>
<line fill="none" stroke="#1D8FCE" stroke-miterlimit="10" x1="21" y1="1" x2="21" y2="47"/>
<line fill="none" stroke="#1D8FCE" stroke-miterlimit="10" x1="30" y1="1" x2="30" y2="47"/>
<line fill="none" stroke="#1D8FCE" stroke-miterlimit="10" x1="39" y1="1" x2="39" y2="47"/>
<g enable-background="new    ">
	<path fill="#DB4D4D" d="M32.061,38.107v-1.524c0.645,0.433,1.293,0.649,1.955,0.649c0.664,0,1.199-0.17,1.605-0.51
		c0.406-0.342,0.607-0.791,0.607-1.356c0-0.556-0.205-0.989-0.617-1.3c-0.413-0.312-1.004-0.465-1.774-0.465
		c-0.265,0-0.8,0.025-1.606,0.082l0.352-5.154h4.826v1.354h-3.51l-0.164,2.454c0.314-0.021,0.603-0.026,0.854-0.026
		c1.039,0,1.843,0.269,2.409,0.801c0.568,0.533,0.852,1.264,0.852,2.188c0,0.972-0.324,1.749-0.975,2.334
		c-0.648,0.587-1.541,0.88-2.676,0.88C33.242,38.511,32.529,38.376,32.061,38.107z"/>
</g>
<g enable-background="new    ">
	<path fill="#DB4D4D" d="M27.547,9.661v6.33h1.456v1.319h-1.456v2.153h-1.538V17.31h-4.437v-1.333
		c0.401-0.451,0.813-0.939,1.234-1.467c0.421-0.525,0.827-1.063,1.217-1.613c0.39-0.549,0.75-1.099,1.083-1.65
		c0.334-0.551,0.612-1.08,0.844-1.586H27.547z M26.009,15.991v-4.115c-0.497,0.894-0.987,1.673-1.474,2.338
		c-0.485,0.665-0.939,1.258-1.363,1.777H26.009z"/>
</g>
</svg>
