<?xml version="1.0" encoding="utf-8"?>
<!-- Generator: Adobe Illustrator 15.1.0, SVG Export Plug-In . SVG Version: 6.00 Build 0)  -->
<!DOCTYPE svg PUBLIC "-//W3C//DTD SVG 1.1//EN" "http://www.w3.org/Graphics/SVG/1.1/DTD/svg11.dtd">
<svg version="1.1" id="Layer_1" xmlns="http://www.w3.org/2000/svg" xmlns:xlink="http://www.w3.org/1999/xlink" x="0px" y="0px"
	 width="167px" height="70px" viewBox="0 0 167 70" enable-background="new 0 0 167 70" xml:space="preserve">
<g>
	<g>
		<path fill="#FDFFFF" d="M104.303,41.066c-0.994,0.521-2.068,0.786-3.188,0.786H62.099c-3.795,0-6.883-3.087-6.883-6.883
			c0-3.392,2.532-6.315,5.891-6.803l0.791-0.114l-0.167-0.781c-0.134-0.623-0.202-1.258-0.202-1.891
			c0-4.934,4.014-8.948,8.949-8.948c0.852,0,1.7,0.122,2.52,0.362l0.549,0.161l0.298-0.487c0.5-0.815,1.067-1.568,1.694-2.255
			h21.501c1.855,2.023,3.16,4.582,3.637,7.473l0.094,0.57l0.576,0.052c5.072,0.46,8.896,4.651,8.896,9.75
			C110.242,35.959,107.93,39.485,104.303,41.066z"/>
		<path fill="#0173C7" d="M101.994,20.849c-0.557-2.777-1.807-5.261-3.547-7.292V6.09H73.621v7.987
			c-0.28,0.356-0.551,0.721-0.804,1.103c-0.785-0.185-1.587-0.278-2.394-0.278c-5.757,0-10.441,4.684-10.441,10.441
			c0,0.485,0.035,0.971,0.102,1.455c-3.705,0.894-6.414,4.264-6.414,8.134c0,4.619,3.757,8.377,8.376,8.377h39.015
			c1.346,0,2.689-0.332,3.836-0.936c4.123-1.793,6.785-5.856,6.785-10.352C111.682,26.336,107.557,21.63,101.994,20.849z
			 M104.25,41.027c-0.996,0.522-2.068,0.786-3.189,0.786H62.045c-3.795,0-6.883-3.087-6.883-6.882c0-3.392,2.532-6.315,5.891-6.802
			l0.79-0.114l-0.168-0.781c-0.133-0.623-0.201-1.26-0.201-1.891c0-4.934,4.014-8.948,8.948-8.948c0.853,0,1.701,0.122,2.521,0.362
			l0.548,0.161l0.298-0.487c0.499-0.815,1.067-1.569,1.693-2.255h21.502c1.854,2.024,3.16,4.582,3.637,7.472l0.092,0.571
			l0.576,0.052c5.072,0.459,8.898,4.651,8.898,9.75C110.189,35.921,107.877,39.447,104.25,41.027z"/>
		<polygon fill="#0173C7" points="109.74,8.369 107.5,15.589 112.967,15.589 110.729,8.369 110.729,4.365 110.729,2.459 
			110.729,2.248 61.339,2.248 61.339,4.365 109.74,4.365 		"/>
		<path fill="#0173C7" d="M102.922,29.507c-0.74,0-1.34,0.562-1.414,1.279l-5.793,1.786c-0.504-1.061-1.465-1.855-2.631-2.128
			l0.555-6.361c0.645-0.188,1.121-0.777,1.121-1.483c0-0.858-0.695-1.554-1.555-1.554c-0.598,0-1.113,0.343-1.371,0.84l-7.328-0.799
			c-0.105-1.757-1.549-3.154-3.334-3.154c-1.852,0-3.354,1.501-3.354,3.354c0,1.276,0.721,2.372,1.769,2.938l-2.192,6.486
			c-0.094-0.01-0.185-0.028-0.281-0.028c-0.504,0-0.971,0.15-1.371,0.398l-4.131-4.242c0.051-0.139,0.083-0.288,0.083-0.445
			c0-0.718-0.583-1.3-1.3-1.3c-0.718,0-1.3,0.582-1.3,1.3c0,0.718,0.582,1.3,1.3,1.3c0.146,0,0.283-0.029,0.413-0.073l4.129,4.239
			c-0.271,0.411-0.432,0.902-0.432,1.432c0,0.005,0.002,0.01,0.002,0.016l-9.038,2.042c-0.315-0.526-0.886-0.882-1.545-0.882
			c-0.998,0-1.806,0.808-1.806,1.807c0,0.996,0.808,1.806,1.806,1.806c0.94,0,1.702-0.722,1.789-1.637l9.047-2.045
			c0.417,0.885,1.311,1.502,2.354,1.502c1.189,0,2.183-0.801,2.496-1.89l8.7,0.549c0.164,2.01,1.828,3.596,3.883,3.596
			c2.16,0,3.912-1.752,3.912-3.913c0-0.206-0.031-0.403-0.061-0.601l5.793-1.786c0.262,0.31,0.648,0.509,1.086,0.509
			c0.789,0,1.43-0.64,1.43-1.429C104.352,30.146,103.711,29.507,102.922,29.507z M88.361,33.44l-8.68-0.547
			c-0.121-0.776-0.579-1.436-1.225-1.826l2.19-6.479c0.172,0.027,0.345,0.052,0.525,0.052c0.626,0,1.206-0.182,1.707-0.481
			l6.387,7.51C88.826,32.167,88.502,32.767,88.361,33.44z M91.967,30.353c-0.678,0.039-1.309,0.244-1.852,0.585l-6.384-7.506
			c0.3-0.356,0.523-0.772,0.654-1.232l7.326,0.799c0.117,0.435,0.416,0.792,0.813,0.988L91.967,30.353z"/>
	</g>
	<g>
		<path fill="#0173C7" d="M8.686,48.778C2.58,48.778,0,54.226,0,58.712c0,4.487,2.58,9.935,8.686,9.935
			c6.107,0,8.686-5.447,8.686-9.935C17.372,54.226,14.793,48.778,8.686,48.778z M8.686,67.659c-5.345,0-7.697-4.875-7.697-8.947
			c0-4.073,2.353-8.947,7.697-8.947c5.345,0,7.697,4.874,7.697,8.947C16.383,62.784,14.031,67.659,8.686,67.659z"/>
		<polygon fill="#0173C7" points="37.475,55.014 31.875,68.179 32.945,68.179 38.009,56.27 43.073,68.179 44.142,68.179 
			38.542,55.014 		"/>
		<path fill="#0173C7" d="M52.223,56.041c-0.427-0.373-0.989-0.667-1.523-0.827c-0.507-0.135-1.029-0.2-1.522-0.2
			c-0.95,0-1.884,0.213-2.726,0.573l0.373,0.909c0.695-0.294,1.55-0.494,2.379-0.494c1.176,0,2.138,0.399,2.807,1.227
			c0.534,0.655,0.761,1.403,0.788,2.299v0.293c-1.671,0.214-4.303,0.709-6.053,1.764c-1.377,0.828-2.125,2.122-2.125,3.391
			c0,1.616,1.404,3.164,3.233,3.204c1.912,0.04,3.595-0.947,4.904-1.642l0.361,1.642h0.667v-8.651
			C53.786,58.125,53.186,56.869,52.223,56.041z M52.798,65.336c-0.909,0.586-3.208,1.936-4.932,1.854
			c-1.363-0.067-2.257-1.147-2.257-2.27c0-0.707,0.415-1.576,1.203-2.19c1.322-1.028,4.222-1.735,5.986-1.895V65.336z"/>
		<polygon fill="#0173C7" points="65.169,55.693 64.46,55.014 57.873,62.184 57.873,55.014 56.884,55.014 56.884,68.179 
			57.873,68.179 57.873,63.652 60.211,61.115 65.69,68.179 66.932,68.179 60.879,60.383 		"/>
		<path fill="#0173C7" d="M73.158,54.639c-4.344,0-5.948,3.284-5.948,6.958c0,3.672,1.604,6.957,5.948,6.957
			c4.342,0,5.945-3.285,5.945-6.957C79.103,57.923,77.5,54.639,73.158,54.639z M73.158,67.564c-3.688,0-4.959-2.938-4.959-5.968
			c0-3.032,1.271-5.97,4.959-5.97c3.688,0,4.957,2.938,4.957,5.97C78.115,64.626,76.845,67.564,73.158,67.564z"/>
		<path fill="#0173C7" d="M25.439,54.639c-2.475,0-4.058,1.068-4.964,2.666v-1.513h0.005c-0.003-0.066-0.003-0.137-0.005-0.207
			v-0.14c0.003-0.096,0.008-0.191,0.019-0.289c0.277-2.524,2.504-3.556,4.945-3.486v-0.005c0.035,0,0.07,0,0.105-0.001
			c1.618-0.066,3.608-0.894,4.837-2.617l-0.775-0.613c-1.123,1.614-2.966,2.203-4.088,2.243c-0.06,0.002-0.12,0.001-0.18,0.001
			v0.004c-2.889-0.046-5.572,1.384-5.833,4.461c-0.005,0.062-0.005,0.121-0.008,0.183h-0.01v6.271h0.006v0.001
			c0,3.672,1.604,6.957,5.947,6.957c4.343,0,5.946-3.285,5.946-6.957C31.385,57.923,29.782,54.639,25.439,54.639z M25.439,67.564
			c-3.688,0-4.958-2.938-4.958-5.968c0-3.032,1.27-5.97,4.958-5.97s4.958,2.938,4.958,5.97
			C30.397,64.626,29.127,67.564,25.439,67.564z"/>
		<path fill="#0173C7" d="M122.029,56.05c-0.428-0.373-0.99-0.667-1.523-0.827c-0.508-0.134-1.027-0.2-1.523-0.2
			c-0.949,0-1.885,0.213-2.725,0.573l0.373,0.909c0.695-0.294,1.551-0.495,2.379-0.495c1.176,0,2.139,0.402,2.807,1.228
			c0.533,0.655,0.76,1.404,0.789,2.299v0.294c-1.672,0.213-4.305,0.707-6.055,1.762c-1.377,0.828-2.125,2.123-2.125,3.391
			c0,1.617,1.404,3.165,3.234,3.205c1.91,0.04,3.594-0.947,4.904-1.642l0.359,1.642h0.67v-8.651
			C123.594,58.133,122.992,56.878,122.029,56.05z M122.605,65.345c-0.91,0.587-3.207,1.935-4.934,1.854
			c-1.361-0.066-2.256-1.147-2.256-2.27c0-0.706,0.414-1.577,1.203-2.19c1.32-1.027,4.221-1.735,5.986-1.896V65.345z"/>
		<path fill="#0173C7" d="M150.686,64.542c-0.521,1.403-2.164,2.751-4.529,2.951c-2.299,0.188-4.57,0.015-4.57-2.964v-9.521h-0.988
			v9.521c0,3.807,2.859,4.14,5.531,3.952c1.645-0.146,3.207-0.588,4.504-2.015l0.375,1.721h0.668V55.022h-0.99V64.542z"/>
		<path fill="#0173C7" d="M165.648,55.022v9.52c-0.523,1.403-2.166,2.751-4.529,2.951c-2.299,0.188-4.57,0.015-4.57-2.964v-9.521
			h-0.988v9.521c0,3.807,2.857,4.14,5.531,3.952c1.645-0.146,3.207-0.588,4.502-2.015l0.373,1.721h0.67V55.022H165.648z"/>
		<polygon fill="#0173C7" points="111.998,59.406 111.998,59.682 111.998,60.746 102.898,60.746 102.898,59.682 102.898,59.406 
			102.898,55.008 101.908,55.008 101.908,59.406 101.908,59.682 101.908,68.188 102.898,68.188 102.898,61.734 111.998,61.734 
			111.998,68.188 112.986,68.188 112.986,59.682 112.986,59.406 112.986,55.022 111.998,55.022 		"/>
		<polygon fill="#0173C7" points="136.457,59.406 136.457,59.682 136.457,60.746 127.357,60.746 127.357,59.682 127.357,59.406 
			127.357,55.008 126.369,55.008 126.369,59.406 126.369,59.682 126.369,68.188 127.357,68.188 127.357,61.734 136.457,61.734 
			136.457,68.188 137.447,68.188 137.447,59.682 137.447,59.406 137.447,55.022 136.457,55.022 		"/>
		<rect x="158.674" y="51.178" fill="#0173C7" width="4.848" height="0.987"/>
		<path fill="#0173C7" d="M97.182,60.398c0.998-0.585,1.58-1.6,1.609-2.831c0-0.037-0.002-0.076-0.004-0.114l-0.004-0.052
			c-0.074-1.866-1.809-2.837-3.34-2.766c-0.258,0.012-0.516,0.052-0.791,0.121c-0.754,0.19-1.438,0.591-2.031,1.193l-0.098,0.101
			l0.654,0.733l0.111-0.136c0.082-0.099,0.838-0.974,2.18-1.056c1.211,0,2.172,0.654,2.332,1.578
			c0.008,0.104,0.014,0.209,0.016,0.319c0,0.088-0.004,0.172-0.01,0.255c-0.082,1.372-0.986,2.152-2.545,2.196l-0.146,0.004v0.979
			l0.186-0.002c1.582,0,3.285,1.024,3.285,3.271c0,2.33-1.891,3.392-3.643,3.392c-1.389,0-2.371-0.552-2.922-1.638l-0.041-0.082
			h-1.104l0.104,0.215c0.783,1.626,2.127,2.484,3.879,2.484c2.34,0,4.707-1.501,4.707-4.371
			C99.566,62.565,98.619,61.08,97.182,60.398z"/>
	</g>
</g>
</svg>
