<?xml version="1.0" encoding="utf-8"?>
<!-- Generator: Adobe Illustrator 15.1.0, SVG Export Plug-In . SVG Version: 6.00 Build 0)  -->
<!DOCTYPE svg PUBLIC "-//W3C//DTD SVG 1.1//EN" "http://www.w3.org/Graphics/SVG/1.1/DTD/svg11.dtd">
<svg version="1.1" id="Layer_1" xmlns="http://www.w3.org/2000/svg" xmlns:xlink="http://www.w3.org/1999/xlink" x="0px" y="0px"
	 width="16px" height="16px" viewBox="0 0 16 16" enable-background="new 0 0 16 16" xml:space="preserve">
<g display="none">
	<path display="inline" fill="#555555" d="M1.06,12.738v-1.525c0.643,0.434,1.294,0.65,1.955,0.65c0.665,0,1.201-0.17,1.606-0.51
		c0.405-0.34,0.608-0.793,0.608-1.357c0-0.557-0.206-0.988-0.618-1.298c-0.413-0.31-1.004-0.465-1.774-0.465
		c-0.265,0-0.8,0.027-1.606,0.082L1.58,3.161h4.826v1.354H2.898L2.734,6.968c0.314-0.018,0.6-0.027,0.854-0.027
		c1.039,0,1.843,0.267,2.409,0.8C6.566,8.274,6.85,9.003,6.85,9.928c0,0.971-0.324,1.75-0.975,2.336
		c-0.648,0.584-1.541,0.877-2.676,0.877C2.242,13.141,1.529,13.007,1.06,12.738z"/>
	<path display="inline" fill="#555555" d="M15.907,9.477h-2.7v2.701h-1.128V9.477h-2.7V8.349h2.7V5.642h1.128v2.707h2.7V9.477z"/>
</g>
<g>
	<polygon fill="#4C4C4C" points="7.499,14.827 0.208,8.906 2.5,6.083 6.902,9.657 13.248,1.453 16.125,3.679 	"/>
</g>
</svg>
