<?xml version="1.0" encoding="utf-8"?>
<!-- Generator: Adobe Illustrator 15.1.0, SVG Export Plug-In . SVG Version: 6.00 Build 0)  -->
<!DOCTYPE svg PUBLIC "-//W3C//DTD SVG 1.1//EN" "http://www.w3.org/Graphics/SVG/1.1/DTD/svg11.dtd">
<svg version="1.1" id="Layer_1" xmlns="http://www.w3.org/2000/svg" xmlns:xlink="http://www.w3.org/1999/xlink" x="0px" y="0px"
	 width="16px" height="16px" viewBox="0 0 16 16" enable-background="new 0 0 16 16" xml:space="preserve">
<g id="Layer_1_1_">
	<g id="Layer_3">
		<path fill="#FFFFFF" d="M13.244,1.743H5.928v11.397h8.559V3.2C13.963,2.804,13.551,2.304,13.244,1.743z"/>
	</g>
	<g>
		<path fill="#4C4C4C" d="M13.824,2.946v9.513H5.99V1.542h6.488c-0.131-0.232-0.236-0.475-0.318-0.729H5.267v12.375h9.282V3.305
			C14.297,3.208,14.051,3.087,13.824,2.946z"/>
	</g>
	<line fill="none" stroke="#4C4C4C" stroke-miterlimit="10" x1="12.311" y1="1.001" x2="14.438" y2="3.579"/>
	<line fill="none" stroke="#DDD940" stroke-width="4" stroke-miterlimit="10" x1="7.5" y1="6.5" x2="12.5" y2="6.5"/>
</g>
<g id="Layer_1_copy">
	<g id="Layer_3_copy">
		<path fill="#FFFFFF" d="M7.315,2.5H-0.5v12h9V4.331C8.5,3.936,7.622,3.5,7.315,2.5z"/>
	</g>
	<g>
		<path fill="#4C4C4C" d="M8.5,4.758V14.5h-8v-11h6.712c-0.132,0-0.237-1-0.318-1H-0.5v13h10V5.116C9.5,5.021,8.5,4.899,8.5,4.758z"
			/>
	</g>
	<g>
		<path fill="#4C4C4C" d="M8.502,4.5H7.5V3.55c0-0.25-0.387-0.519-0.486-0.799C6.934,2.756,6.77,2.77,6.687,2.77
			C6.654,2.77,6.5,2.767,6.5,2.765V5.5h2.689c-0.049,0-0.078-0.416-0.113-0.557C8.876,4.855,8.686,4.5,8.502,4.5z"/>
	</g>
	<line fill="none" stroke="#4C4C4C" stroke-miterlimit="10" x1="6.768" y1="2.625" x2="8.895" y2="5.203"/>
	<line fill="none" stroke="#1D8FCE" stroke-width="4" stroke-miterlimit="10" x1="1.5" y1="8" x2="7.25" y2="8"/>
</g>
<line fill="none" stroke="#4C4C4C" stroke-miterlimit="10" x1="12" y1="1.5" x2="12" y2="3.5"/>
<line fill="none" stroke="#4C4C4C" stroke-miterlimit="10" x1="11.5" y1="4" x2="14.5" y2="4"/>
</svg>
