<?xml version="1.0" encoding="utf-8"?>
<!-- Generator: Adobe Illustrator 15.1.0, SVG Export Plug-In . SVG Version: 6.00 Build 0)  -->
<!DOCTYPE svg PUBLIC "-//W3C//DTD SVG 1.1//EN" "http://www.w3.org/Graphics/SVG/1.1/DTD/svg11.dtd">
<svg version="1.1" id="Layer_1" xmlns="http://www.w3.org/2000/svg" xmlns:xlink="http://www.w3.org/1999/xlink" x="0px" y="0px"
	 width="48px" height="48px" viewBox="0 0 48 48" enable-background="new 0 0 48 48" xml:space="preserve">
<g id="Layer_1_1_" display="none">
	<path display="inline" fill="#555555" d="M37.141,5.067c-0.216-0.151-5.375-3.708-12.849-3.708c-4.335,0-8.555,1.202-12.484,3.541
		C11.532,5.044,5.1,8.541,7.119,18.211c0.014,1.25-0.138,2.638-0.335,3.066l-4.491,5.28c-0.093,0.109-0.166,0.231-0.216,0.365
		c-0.081,0.21-0.448,1.311,0.176,2.303c0.285,0.452,0.867,1.01,2.024,1.129l2.11,0.438c0.349,0.783,0.833,2.056,0.897,3.007
		c0.092,1.37-0.184,3.081-0.256,3.495c-0.467,1.334-0.742,3.792,1.032,5.104c0.092,0.066,0.191,0.123,0.296,0.162
		c0,0.002,0.002,0.002,0.004,0.004c0.354,0.185,1.183,0.61,3.245,0.61c1.583,0,3.633-0.25,6.104-0.741
		c0.202,0.586,0.479,1.676,0.708,3.566h2.517c-0.472-4.15-1.24-5.479-1.687-5.896c-0.299-0.281-0.716-0.396-1.117-0.313
		c-2.726,0.587-4.921,0.884-6.525,0.884c-1.452,0-1.917-0.239-2.092-0.332C9.5,40.334,9.486,40.326,9.472,40.32
		c-0.542-0.537-0.191-1.912-0.063-2.262c0.025-0.068,0.045-0.143,0.059-0.209c0.014-0.07,0.25-1.336,0.316-2.76l2.573,0.042
		c0.007,0.001,0.014,0.001,0.021,0.001c0.681,0,1.238-0.547,1.25-1.229c0.011-0.689-0.539-1.262-1.229-1.271L9.626,32.59
		c-0.351-1.65-1.156-3.26-1.265-3.471c-0.173-0.338-0.489-0.578-0.86-0.654l-2.788-0.572c-0.048-0.013-0.098-0.02-0.148-0.021
		c-0.036-0.002-0.069-0.006-0.098-0.013L8.77,22.8c0.042-0.049,0.079-0.1,0.113-0.154c0.743-1.207,0.75-3.827,0.735-4.603
		c-0.001-0.079-0.011-0.159-0.027-0.237C7.904,9.964,12.77,7.222,13.028,7.081c3.596-2.138,7.386-3.223,11.266-3.223
		c6.651,0,11.369,3.224,11.39,3.238c10.318,7.603,3.992,19.202,3.49,20.085c-2.527,3.655-3.764,9.143-3.814,9.375
		c-0.016,0.063-0.021,0.129-0.024,0.191c-0.205,3.334,0.274,7.037,0.646,9.248h2.539c-0.349-1.999-0.879-5.732-0.694-8.993
		c0.17-0.716,1.334-5.422,3.438-8.44c0.021-0.024,0.034-0.057,0.053-0.08C41.391,28.341,49.495,14.169,37.141,5.067z"/>
	<path display="inline" fill="#555555" d="M36.004,19.516l1.271-0.515l-0.938-2.317l-1.271,0.514
		c-0.205-0.261-0.438-0.496-0.688-0.701l0.537-1.267l-2.304-0.976l-0.536,1.267c-0.322-0.04-0.651-0.041-0.979-0.008l-0.516-1.272
		l-2.314,0.937l0.521,1.289c-0.105,0.085-0.225,0.159-0.323,0.254c-0.139,0.132-0.261,0.275-0.38,0.42l-1.271-0.539l-0.979,2.3
		l1.271,0.54c-0.039,0.324-0.047,0.651-0.014,0.98l-1.271,0.515l0.938,2.317l1.271-0.514c0.203,0.259,0.437,0.494,0.688,0.701
		l-0.536,1.266l2.303,0.975l0.543-1.282c0.322,0.038,0.646,0.041,0.97,0.008l0.521,1.29l2.317-0.938l-0.521-1.29
		c0.104-0.085,0.226-0.159,0.324-0.256c0.139-0.13,0.26-0.272,0.379-0.417l1.271,0.539l0.978-2.301l-1.271-0.539
		C36.029,20.172,36.037,19.844,36.004,19.516z M33.385,19.226c0.309,0.76,0.123,1.614-0.471,2.178
		c-0.18,0.172-0.391,0.307-0.623,0.401c-0.491,0.198-1.029,0.192-1.516-0.014c-0.487-0.207-0.864-0.591-1.063-1.081
		c-0.308-0.76-0.121-1.615,0.472-2.179c0.18-0.171,0.393-0.306,0.623-0.399C31.82,17.722,32.977,18.213,33.385,19.226z"/>
	<g display="inline">
		<path fill="#555555" d="M26.053,10.818L24.33,9.007l-1.225,1.166c-0.588-0.397-1.232-0.677-1.9-0.839l0.043-1.695l-2.499-0.062
			l-0.042,1.695c-0.677,0.129-1.334,0.375-1.94,0.743l-1.166-1.226l-1.811,1.723l1.166,1.225c-0.398,0.587-0.677,1.232-0.839,1.9
			l-1.696-0.042l-0.063,2.498l1.695,0.042c0.128,0.676,0.375,1.333,0.744,1.939L13.57,19.24l1.723,1.812l1.226-1.166
			c0.587,0.398,1.231,0.677,1.898,0.84l-0.042,1.695l2.499,0.063l0.042-1.695c0.676-0.129,1.334-0.375,1.939-0.743l1.166,1.226
			l1.811-1.724l-1.165-1.226c0.397-0.586,0.677-1.23,0.84-1.9l1.694,0.043l0.063-2.499l-1.693-0.042
			c-0.129-0.676-0.377-1.333-0.74-1.939L26.053,10.818z M22.105,17.466c-1.349,1.283-3.481,1.229-4.764-0.119
			c-1.283-1.349-1.23-3.481,0.119-4.765c1.349-1.283,3.481-1.229,4.765,0.12C23.508,14.051,23.455,16.184,22.105,17.466z"/>
	</g>
</g>
<g id="Layer_2">
	<circle fill="#4C4C4C" cx="24" cy="24" r="24"/>
	<ellipse fill="#FFFFFF" cx="24" cy="15.167" rx="8.834" ry="10.333"/>
</g>
<g id="Layer_3">
	<g>
		<g>
			<g>
				<defs>
					<circle id="SVGID_1_" cx="24" cy="24" r="24"/>
				</defs>
				<clipPath id="SVGID_2_">
					<use xlink:href="#SVGID_1_"  overflow="visible"/>
				</clipPath>
				<path clip-path="url(#SVGID_2_)" fill="#FFFFFF" d="M42.5,54.833c0,5.522-7.811,10.333-13.333,10.333H19.5
					c-5.523,0-12.667-3.811-12.667-9.333L9.5,38.5c0-5.523,4.477-10,10-10l5.333,9l4.333-9c5.521,0,9.333,4,10,10L42.5,54.833z"/>
			</g>
		</g>
	</g>
</g>
</svg>
