<?xml version="1.0" encoding="utf-8"?>
<!-- Generator: Adobe Illustrator 15.1.0, SVG Export Plug-In . SVG Version: 6.00 Build 0)  -->
<!DOCTYPE svg PUBLIC "-//W3C//DTD SVG 1.1//EN" "http://www.w3.org/Graphics/SVG/1.1/DTD/svg11.dtd">
<svg version="1.1" id="Layer_1" xmlns="http://www.w3.org/2000/svg" xmlns:xlink="http://www.w3.org/1999/xlink" x="0px" y="0px"
	 width="16px" height="16px" viewBox="0 0 16 16" enable-background="new 0 0 16 16" xml:space="preserve">
<rect display="none" width="16" height="16"/>
<path fill="#4C4C4C" d="M7.494,8.055c-0.404,1.607-2.039,2.586-3.648,2.182C2.238,9.835,1.261,8.2,1.664,6.591
	c0.405-1.609,2.038-2.586,3.648-2.182C6.922,4.81,7.898,6.443,7.494,8.055z"/>
<path fill="#4C4C4C" d="M9.375,16c0,0-0.125-4.313-3.173-4.25H3.173C0,11.625,0,16,0,16H9.375z"/>
<path fill="#4C4C4C" d="M15.119,5.115c-0.404,1.607-2.039,2.586-3.648,2.182c-1.605-0.405-2.585-2.04-2.182-3.649
	c0.404-1.609,2.038-2.586,3.648-2.182C14.547,1.871,15.523,3.503,15.119,5.115z"/>
<path fill="#4C4C4C" d="M11.063,15.375h6.563c0,0-0.25-6.563-3.798-6.564h-3.029C9.516,8.76,8.757,9.451,8.302,10.285
	C9.284,10.939,11.188,12.5,11.063,15.375z"/>
</svg>
