<?xml version="1.0" encoding="utf-8"?>
<!-- Generator: Adobe Illustrator 15.1.0, SVG Export Plug-In . SVG Version: 6.00 Build 0)  -->
<!DOCTYPE svg PUBLIC "-//W3C//DTD SVG 1.1//EN" "http://www.w3.org/Graphics/SVG/1.1/DTD/svg11.dtd">
<svg version="1.1" id="Layer_1" xmlns="http://www.w3.org/2000/svg" xmlns:xlink="http://www.w3.org/1999/xlink" x="0px" y="0px"
	 width="48px" height="48px" viewBox="0 0 48 48" enable-background="new 0 0 48 48" xml:space="preserve">
<g>
	<path fill="#1D8FCE" d="M24.242,44.416c-0.862-0.887-6.018-0.93-6.018-0.93L1.333,43.354V6.333L18.21,6.466
		c0,0,5.526-0.267,6.032,0.929C24.749,8.592,25.104,45.301,24.242,44.416z"/>
	<path fill="#FFFFFF" stroke="#4C4C4C" stroke-miterlimit="10" d="M23.834,40.333c-0.709-0.833-4.947-0.874-4.947-0.874L5,39.333
		V4.5l13.875,0.125c0,0,4.543-0.251,4.959,0.875S24.543,41.166,23.834,40.333z"/>
	<line fill="none" stroke="#4C4C4C" x1="7.938" y1="9" x2="20.063" y2="9"/>
	<line fill="none" stroke="#4C4C4C" x1="7.938" y1="14" x2="20.063" y2="14"/>
	<line fill="none" stroke="#4C4C4C" x1="7.938" y1="19" x2="20.063" y2="19"/>
	<line fill="none" stroke="#4C4C4C" x1="7.938" y1="24" x2="20.063" y2="24"/>
	<line fill="none" stroke="#4C4C4C" x1="7.938" y1="29" x2="20.063" y2="29"/>
	<line fill="none" stroke="#4C4C4C" x1="7.938" y1="34" x2="20.063" y2="34"/>
</g>
<g>
	<path fill="#1D8FCE" d="M24.092,44.082c0.862-0.887,6.018-0.93,6.018-0.93L47,43.02V5.999L30.123,6.133
		c0,0-5.525-0.268-6.031,0.929S23.229,44.967,24.092,44.082z"/>
	<path fill="#FFFFFF" stroke="#4C4C4C" stroke-miterlimit="10" d="M24.5,39.999c0.709-0.833,4.947-0.874,4.947-0.874l13.886-0.126
		V4.166L29.459,4.291c0,0-4.543-0.251-4.959,0.875C24.084,6.291,23.791,40.832,24.5,39.999z"/>
	<line fill="none" stroke="#4C4C4C" x1="39.063" y1="9" x2="26.938" y2="9"/>
	<line fill="none" stroke="#4C4C4C" x1="39.063" y1="14" x2="26.938" y2="14"/>
	<line fill="none" stroke="#4C4C4C" x1="39.063" y1="19" x2="26.938" y2="19"/>
	<line fill="none" stroke="#4C4C4C" x1="39.063" y1="24" x2="26.938" y2="24"/>
	<line fill="none" stroke="#4C4C4C" x1="39.063" y1="29" x2="26.938" y2="29"/>
	<line fill="none" stroke="#4C4C4C" x1="39.063" y1="34" x2="26.938" y2="34"/>
</g>
</svg>
